<svg width="554" height="145" xmlns="http://www.w3.org/2000/svg" xmlns:xlink="http://www.w3.org/1999/xlink" xml:space="preserve" overflow="hidden"><g><path d="M55.1387 217.687 262.975 217.687 262.975 256.878 262.714 256.617 515.434 256.617 515.172 256.878 515.172 201.74 595.027 201.74 595.027 202.262 515.434 202.262 515.695 202.001 515.695 257.14 262.452 257.14 262.452 217.948 262.714 218.21 55.1387 218.21ZM595.027 202.001 592.242 198.516 599.208 202.001 592.242 205.485Z" transform="matrix(1 0 0 1.00158 -52.7868 -139.242)"/><path d="M176.391 217.941C176.391 216.931 177.328 216.112 178.482 216.112 179.637 216.112 180.573 216.931 180.573 217.941 180.573 218.952 179.637 219.771 178.482 219.771 177.328 219.771 176.391 218.952 176.391 217.941Z" stroke="#000000" stroke-width="0.522641" stroke-miterlimit="8" fill="#FFFFFF" fill-rule="evenodd" transform="matrix(1 0 0 1.00158 -52.7868 -139.242)"/><path d="M257.401 195.207 267.854 195.207 267.854 231.582 262.627 240.676 257.401 231.582Z" stroke="#000000" stroke-width="0.522641" stroke-miterlimit="8" fill="#FFFFFF" fill-rule="evenodd" transform="matrix(1 0 0 1.00158 -52.7868 -139.242)"/><path d="M345.205 256.356C345.205 255.201 346.024 254.265 347.034 254.265 348.044 254.265 348.863 255.201 348.863 256.356 348.863 257.51 348.044 258.446 347.034 258.446 346.024 258.446 345.205 257.51 345.205 256.356Z" stroke="#000000" stroke-width="0.522641" stroke-miterlimit="8" fill="#FFFFFF" fill-rule="evenodd" transform="matrix(1 0 0 1.00158 -52.7868 -139.242)"/><path d="M429.35 256.356C429.35 255.201 430.169 254.265 431.179 254.265 432.189 254.265 433.008 255.201 433.008 256.356 433.008 257.51 432.189 258.446 431.179 258.446 430.169 258.446 429.35 257.51 429.35 256.356Z" stroke="#000000" stroke-width="0.522641" stroke-miterlimit="8" fill="#FFFFFF" fill-rule="evenodd" transform="matrix(1 0 0 1.00158 -52.7868 -139.242)"/><path d="M69.7726 145.033 287.191 145.033 287.191 168.552 69.7726 168.552Z" stroke="#000000" stroke-width="0.522641" stroke-linejoin="round" stroke-miterlimit="10" fill="none" transform="matrix(1 0 0 1.00158 -52.7868 -139.242)"/><text font-family="SimHei,SimHei_MSFontService,sans-serif" font-weight="400" font-size="29" transform="matrix(0.522641 0 0 0.523466 25.7317 24)">西方殖民入侵之前的斯里兰卡</text><path d="M296.599 183.186 479.001 183.186 479.001 207.227 296.599 207.227Z" stroke="#000000" stroke-width="0.522641" stroke-linejoin="round" stroke-miterlimit="10" fill="none" transform="matrix(1 0 0 1.00158 -52.7868 -139.242)"/><text font-family="SimHei,SimHei_MSFontService,sans-serif" font-weight="400" font-size="29" transform="matrix(0.522641 0 0 0.523466 250.418 62)">殖民统治时期的斯里兰卡</text><text font-family="KaiTi,KaiTi_MSFontService,sans-serif" font-weight="400" font-size="21" transform="matrix(0.522641 0 0 0.523466 55.3744 51)">斯里兰卡</text><text font-family="KaiTi,KaiTi_MSFontService,sans-serif" font-weight="400" font-size="21" transform="matrix(0.522641 0 0 0.523466 99.9735 51)">之</text><text font-family="KaiTi,KaiTi_MSFontService,sans-serif" font-weight="400" font-size="21" transform="matrix(0.522641 0 0 0.523466 60.9494 64)">斯里兰卡</text><text font-family="KaiTi,KaiTi_MSFontService,sans-serif" font-weight="400" font-size="21" transform="matrix(0.522641 0 0 0.523466 150.791 51)">亚洲之</text><text font-family="KaiTi,KaiTi_MSFontService,sans-serif" font-weight="400" font-size="21" transform="matrix(0.522641 0 0 0.523466 145.216 64)">斯里兰卡</text><text font-family="SimSun,SimSun_MSFontService,sans-serif" font-weight="400" font-size="21" transform="matrix(0.522641 0 0 0.523466 103.083 97)">前</text><text font-family="Times New Roman,Times New Roman_MSFontService,sans-serif" font-weight="400" font-size="21" transform="matrix(0.522641 0 0 0.523466 117.02 97)">543 </text><text font-family="SimSun,SimSun_MSFontService,sans-serif" font-weight="400" font-size="21" transform="matrix(0.522641 0 0 0.523466 136.532 97)">年</text><text font-family="Times New Roman,Times New Roman_MSFontService,sans-serif" font-weight="400" font-size="21" transform="matrix(0.522641 0 0 0.523466 191.531 136)">1505 </text><text font-family="SimSun,SimSun_MSFontService,sans-serif" font-weight="400" font-size="21" transform="matrix(0.522641 0 0 0.523466 216.618 136)">年</text><text font-family="Times New Roman,Times New Roman_MSFontService,sans-serif" font-weight="400" font-size="21" transform="matrix(0.522641 0 0 0.523466 275.798 136)">1658 </text><text font-family="SimSun,SimSun_MSFontService,sans-serif" font-weight="400" font-size="21" transform="matrix(0.522641 0 0 0.523466 300.885 136)">年</text><text font-family="Times New Roman,Times New Roman_MSFontService,sans-serif" font-weight="400" font-size="21" transform="matrix(0.522641 0 0 0.523466 360.065 136)">1815 </text><text font-family="SimSun,SimSun_MSFontService,sans-serif" font-weight="400" font-size="21" transform="matrix(0.522641 0 0 0.523466 385.152 136)">年</text><text font-family="Times New Roman,Times New Roman_MSFontService,sans-serif" font-weight="400" font-size="21" transform="matrix(0.522641 0 0 0.523466 444.333 136)">1948 </text><text font-family="SimSun,SimSun_MSFontService,sans-serif" font-weight="400" font-size="21" transform="matrix(0.522641 0 0 0.523466 469.419 136)">年</text><path d="M510.359 195.207 520.812 195.207 520.812 231.582 515.586 240.676 510.359 231.582Z" stroke="#000000" stroke-width="0.522641" stroke-miterlimit="8" fill="#FFFFFF" fill-rule="evenodd" transform="matrix(1 0 0 1.00158 -52.7868 -139.242)"/><text font-family="SimSun,SimSun_MSFontService,sans-serif" font-weight="400" font-size="21" transform="matrix(0.522641 0 0 0.523466 519.391 80)">至今</text><text font-family="KaiTi,KaiTi_MSFontService,sans-serif" font-weight="400" font-size="21" transform="matrix(0.522641 0 0 0.523466 236.482 89)">葡萄牙</text><text font-family="KaiTi,KaiTi_MSFontService,sans-serif" font-weight="400" font-size="21" transform="matrix(0.522641 0 0 0.523466 225.332 102)">对兰卡殖民</text><text font-family="KaiTi,KaiTi_MSFontService,sans-serif" font-weight="400" font-size="21" transform="matrix(0.522641 0 0 0.523466 325.612 89)">荷兰</text><text font-family="KaiTi,KaiTi_MSFontService,sans-serif" font-weight="400" font-size="21" transform="matrix(0.522641 0 0 0.523466 308.887 102)">对兰卡殖民</text><text font-family="KaiTi,KaiTi_MSFontService,sans-serif" font-weight="400" font-size="21" transform="matrix(0.522641 0 0 0.523466 409.167 89)">英国</text><text font-family="KaiTi,KaiTi_MSFontService,sans-serif" font-weight="400" font-size="21" transform="matrix(0.522641 0 0 0.523466 392.443 102)">对兰卡殖民</text><text font-family="KaiTi,KaiTi_MSFontService,sans-serif" font-weight="400" font-size="21" transform="matrix(0.522641 0 0 0.523466 487.86 44)">独立后</text><path d="M262.627 194.967 262.627 168.552" stroke="#000000" stroke-width="0.522641" stroke-miterlimit="8" fill="none" fill-rule="evenodd" transform="matrix(1 0 0 1.00158 -52.7868 -139.242)"/><path d="M262.627 195.207 296.758 195.261" stroke="#000000" stroke-width="0.522641" stroke-miterlimit="8" fill="none" fill-rule="evenodd" transform="matrix(1 0 0 1.00158 -52.7868 -139.242)"/><path d="M0 0 36.7544 0.0545962" stroke="#000000" stroke-width="0.522641" stroke-miterlimit="8" fill="none" fill-rule="evenodd" transform="matrix(-1 0 0 1.00158 462.968 56.2726)"/><path d="M346.773 254.658 346.773 207.227" stroke="#000000" stroke-width="0.522641" stroke-miterlimit="8" fill="none" fill-rule="evenodd" transform="matrix(1 0 0 1.00158 -52.7868 -139.242)"/><path d="M431.441 254.658 431.441 207.227" stroke="#000000" stroke-width="0.522641" stroke-miterlimit="8" fill="none" fill-rule="evenodd" transform="matrix(1 0 0 1.00158 -52.7868 -139.242)"/><path d="M178.482 215.917 178.482 168.552" stroke="#000000" stroke-width="0.522641" stroke-miterlimit="8" fill="none" fill-rule="evenodd" transform="matrix(1 0 0 1.00158 -52.7868 -139.242)"/><path d="M398.514 140.852 464.367 140.852 464.367 172.733 398.514 172.733Z" stroke="#000000" stroke-width="0.522641" stroke-linejoin="round" stroke-miterlimit="10" fill="none" transform="matrix(1 0 0 1.00158 -52.7868 -139.242)"/><text font-family="KaiTi,KaiTi_MSFontService,sans-serif" font-weight="400" font-size="21" transform="matrix(0.522641 0 0 0.523466 361.459 15)">世界之</text><text font-family="KaiTi,KaiTi_MSFontService,sans-serif" font-weight="400" font-size="21" transform="matrix(0.522641 0 0 0.523466 355.884 28)">斯里兰卡</text><path d="M287.191 157.054 398.369 157.122" stroke="#000000" stroke-width="0.522641" stroke-miterlimit="8" fill="none" fill-rule="evenodd" transform="matrix(1 0 0 1.00158 -52.7868 -139.242)"/><path d="M464.367 156.792 595.205 156.792 595.205 157.315 464.367 157.315ZM595.205 157.054 592.414 153.569 599.386 157.054 592.414 160.538Z" transform="matrix(1 0 0 1.00158 -52.7868 -139.242)"/><text font-family="SimSun,SimSun_MSFontService,sans-serif" font-weight="400" font-size="21" transform="matrix(0.522641 0 0 0.523466 7.28615 97)">前</text><text font-family="Times New Roman,Times New Roman_MSFontService,sans-serif" font-weight="400" font-size="21" transform="matrix(0.522641 0 0 0.523466 21.2234 97)">3000 </text><text font-family="SimSun,SimSun_MSFontService,sans-serif" font-weight="400" font-size="21" transform="matrix(0.522641 0 0 0.523466 46.3102 97)">年</text></g></svg>